<?xml version="1.0" encoding="UTF-8"?>
<svg enable-background="new 0 0 800 800" version="1.1" viewBox="0 0 800 800" xmlns="http://www.w3.org/2000/svg">
 <style type="text/css">.st0{fill:none;stroke:#ffffff;stroke-width:50;stroke-linecap:round;stroke-linejoin:round;stroke-miterlimit:133.3333;}</style>
 <path d="m399.93 47.812c-28.374-.04569-57.02 8.3712-79.855 26.674l-230.95 184.96c-.0069.005-.01268.0121-.01953.0176-35.288 28.107-53.799 76.3-46.037 120.83.000111.00063-.00011.001 0 .002l44.271 265.12a25.002 25.002 0 00.0078.0527c10.217 60.407 64.618 106.53 125.95 106.53h373.3c61.222 0 115.69-46.25 125.95-106.5a25.002 25.002 0 00.01-.0684l44.4-265.3a25.002 25.002 0 00.02149-.12695c7.1805-44.302-11.036-92.312-45.996-120.47a25.002 25.002 0 00-.0703-.0547l-230.99-184.69c-22.936-18.413-51.633-26.929-79.998-26.975zm-.082 50c18.197.0293 36.138 5.8089 48.797 15.979a25.002 25.002 0 00.0469.0352l230.93 184.64c16.44 13.241 31.423 52.432 28.004 73.529l-44.379 265.17.01-.0684c-5.7441 33.745-42.476 64.895-76.655 64.895h-373.3c-34.667 0-70.867-30.677-76.65-64.869l-44.293-265.25a25.002 25.002 0 00-.0293-.17578c-3.6359-20.858 11.245-59.854 27.943-73.148a25.002 25.002 0 00.0547-.0449l231-185a25.002 25.002 0 00.01-.008c12.463-9.9917 30.312-15.722 48.51-15.693zm.15427 377.19a25 25 0 00-25 25v100a25 25 0 0025 25 25 25 0 0025-25v-100a25 25 0 00-25-25z" color="#000000" fill="#fff" stroke-linecap="round" stroke-linejoin="round" stroke-miterlimit="133.33" style="-inkscape-stroke:none"/>
</svg>
