<?xml version="1.0" encoding="UTF-8"?>
<svg width="800px" height="800px" fill="none" version="1.1" viewBox="0 0 24 24" xmlns="http://www.w3.org/2000/svg">
 <path d="m12.004 1.25c-3.9914-.0026979-8.0521 2.4008-9.1153 7.0743-1.2355 5.4576 2.135 10.013 4.9805 12.756h.0019336c2.3033 2.212 5.9536 2.2133 8.2481 0 2.8557-2.7423 6.2276-7.2887 4.9922-12.746-1.0578-4.6736-5.116-7.0813-9.1074-7.084zm0 1.5c3.4061.0023023 6.7423 1.9296 7.6445 5.916 1.0646 4.7025-1.884 8.7563-4.5683 11.334-1.7256 1.6655-4.4335 1.6676-6.1699 0-2.6745-2.5776-5.6231-6.6414-4.5586-11.344.90687-3.9865 4.2463-5.9086 7.6523-5.9062zm2.7461 5.5a.75.75 0 00-.53121.21873l-3.4688 3.4687-.96879-.96873a.75.75 0 00-1.0625 0 .75.75 0 000 1.0625l1.5 1.5a.75008.75008 0 001.0625 0l4-4a.75.75 0 000-1.0625.75.75 0 00-.53127-.21873z" color="#000000" fill="#fff" style="-inkscape-stroke:none"/>
</svg>
